HIERARCHY
ROOT root
{
	OFFSET 0.000000 0.000000 0.000000
	CHANNELS 6 Xposition Yposition Zposition Zrotation Yrotation Xrotation
	JOINT lhip
	{
		OFFSET 0.058581 -0.082280 -0.017664
		CHANNELS 3 Zrotation Yrotation Xrotation
		JOINT lknee
		{
			OFFSET 0.043451 -0.386469 0.008037
			CHANNELS 3 Zrotation Yrotation Xrotation
			JOINT lankle
			{
				OFFSET -0.014790 -0.426874 -0.037428
				CHANNELS 3 Zrotation Yrotation Xrotation
				JOINT ltoe
				{
					OFFSET 0.041054 -0.060286 0.122042
					CHANNELS 3 Zrotation Yrotation Xrotation
					End Site
					{
						OFFSET 0.000000 0.000000 0.000000
					}
				}
			}
		}
	}
	JOINT rhip
	{
		OFFSET -0.060310 -0.090513 -0.013543
		CHANNELS 3 Zrotation Yrotation Xrotation
		JOINT rknee
		{
			OFFSET -0.043257 -0.383688 -0.004843
			CHANNELS 3 Zrotation Yrotation Xrotation
			JOINT rankle
			{
				OFFSET 0.019056 -0.420046 -0.034562
				CHANNELS 3 Zrotation Yrotation Xrotation
				JOINT rtoe
				{
					OFFSET -0.034840 -0.062106 0.130323
					CHANNELS 3 Zrotation Yrotation Xrotation
					End Site
					{
						OFFSET 0.000000 0.000000 0.000000
					}
				}
			}
		}
	}
	JOINT lowerback
	{
		OFFSET 0.004439 0.124404 -0.038385
		CHANNELS 3 Zrotation Yrotation Xrotation
		JOINT upperback
		{
			OFFSET 0.004488 0.137956 0.026820
			CHANNELS 3 Zrotation Yrotation Xrotation
			JOINT chest
			{
				OFFSET -0.002265 0.056032 0.002855
				CHANNELS 3 Zrotation Yrotation Xrotation
				JOINT lowerneck
				{
					OFFSET -0.013390 0.211636 -0.033468
					CHANNELS 3 Zrotation Yrotation Xrotation
					JOINT upperneck
					{
						OFFSET 0.010113 0.088937 0.050410
						CHANNELS 3 Zrotation Yrotation Xrotation
						End Site
						{
							OFFSET 0.000000 0.000000 0.000000
						}
					}
				}
				JOINT lclavicle
				{
					OFFSET 0.071702 0.114000 -0.018898
					CHANNELS 3 Zrotation Yrotation Xrotation
					JOINT lshoulder
					{
						OFFSET 0.122921 0.045205 -0.019046
						CHANNELS 3 Zrotation Yrotation Xrotation
						JOINT lelbow
						{
							OFFSET 0.255332 -0.015649 -0.022946
							CHANNELS 3 Zrotation Yrotation Xrotation
							JOINT lwrist
							{
								OFFSET 0.265709 0.012698 -0.007375
								CHANNELS 3 Zrotation Yrotation Xrotation
								End Site
								{
									OFFSET 0.000000 0.000000 0.000000
								}
							}
						}
					}
				}
				JOINT rclavicle
				{
					OFFSET -0.082954 0.112472 -0.023707
					CHANNELS 3 Zrotation Yrotation Xrotation
					JOINT rshoulder
					{
						OFFSET -0.113228 0.046853 -0.008472
						CHANNELS 3 Zrotation Yrotation Xrotation
						JOINT relbow
						{
							OFFSET -0.260127 -0.014369 -0.031269
							CHANNELS 3 Zrotation Yrotation Xrotation
							JOINT rwrist
							{
								OFFSET -0.269108 0.006794 -0.006027
								CHANNELS 3 Zrotation Yrotation Xrotation
								End Site
								{
									OFFSET 0.000000 0.000000 0.000000
								}
							}
						}
					}
				}
			}
		}
	}
}
MOTION
Frames: 15
Frame Time: 0.033333
-0.210773 0.348153 0.733547 85.054946 1.443850 85.229632 12.166840 -0.659983 -56.931543 -10.330513 17.193005 85.225783 7.597474 5.285066 -31.757907 0.000000 -0.000000 0.000000 -14.106351 -20.257306 -40.722070 -5.656842 -19.991046 101.645376 0.404032 0.410274 -33.910634 0.000000 -0.000000 0.000000 9.362925 3.787095 58.372767 -1.097951 7.160388 7.072627 1.864662 7.021251 4.402319 -6.664118 -3.863188 10.540030 -0.427443 -3.434221 5.687761 -11.903851 -15.102588 -6.940266 -63.173492 -6.592094 24.635102 -124.224872 -84.009528 162.624393 24.684730 -3.278468 -16.084567 5.416175 32.910688 -1.692982 22.438667 30.052608 -17.603764 -5.410049 14.714252 -28.147048 -15.579633 7.224346 -18.780767 
-0.207852 0.351443 0.710735 85.020211 1.266608 84.715146 12.205277 -0.467684 -58.892546 -9.954546 18.152771 89.426759 7.876626 5.353653 -33.232749 0.000000 -0.000000 0.000000 -15.572465 -21.665776 -41.713203 -5.394132 -19.489921 105.895268 0.799443 1.468043 -34.944607 0.000000 -0.000000 0.000000 10.046907 3.651846 60.277339 -0.960555 7.568540 7.064775 2.040740 7.400403 4.586807 -7.026717 -5.218855 10.477170 -0.348659 -3.891126 5.250476 -11.371819 -15.252577 -7.468015 -62.926785 -6.266780 25.149059 -133.902052 -82.139869 171.488480 28.011573 -3.434561 -16.720149 4.783039 33.344035 -2.035170 19.509992 28.735363 -19.914458 -4.636957 14.025832 -31.113353 -16.582458 7.748417 -17.468893 
-0.204032 0.354394 0.688335 84.697160 1.130632 84.344283 12.536700 0.001194 -60.828348 -9.451984 19.323603 93.460845 8.051146 5.443971 -34.472152 0.000000 -0.000000 0.000000 -17.001202 -22.588035 -42.817869 -5.173359 -18.786409 110.007939 0.990645 2.907989 -35.717556 0.000000 -0.000000 0.000000 10.634631 3.658196 61.713532 -0.875239 7.931768 6.723558 2.059652 7.954697 4.864740 -7.239735 -6.215808 11.705601 0.176349 -4.816911 4.147622 -10.867073 -15.681988 -7.401562 -62.549921 -5.908530 25.551394 -139.400705 -80.357275 177.094899 31.347243 -3.628347 -17.182383 4.870586 33.542120 -1.945040 17.345794 27.255138 -21.705039 -4.248648 14.205044 -32.631675 -18.954287 7.503017 -17.667371 
-0.199916 0.357078 0.666623 84.408225 1.042972 83.780346 12.781998 0.405004 -62.521034 -9.180569 20.428913 97.262625 8.416263 6.009359 -35.291090 0.000000 -0.000000 0.000000 -18.378795 -23.484369 -43.837046 -4.055525 -18.157953 113.742940 1.062685 3.623068 -36.100408 0.000000 -0.000000 0.000000 11.093811 3.546554 62.941335 -0.660875 8.222951 6.354432 2.091981 8.262262 5.628933 -7.230899 -6.949694 11.742950 -0.390313 -5.219662 3.868275 -10.464510 -15.583586 -7.667321 -62.159722 -5.881262 26.034166 -142.092526 -78.527350 179.796689 35.669082 -3.358236 -17.177416 4.841186 33.467524 -2.224994 15.630200 26.445107 -22.573331 -4.027425 14.384599 -34.008199 -21.141422 7.514213 -17.217114 
-0.196177 0.359107 0.645753 84.253015 1.074586 83.109324 13.228619 0.665123 -64.028033 -8.922809 21.413830 100.941826 8.491220 6.078473 -35.961574 0.000000 -0.000000 0.000000 -19.624589 -24.025614 -44.689961 -3.678927 -17.635214 117.559516 1.216512 4.452317 -36.414932 0.000000 -0.000000 0.000000 11.334693 3.224717 64.036171 -0.510347 8.316390 6.209955 2.042562 8.589872 5.734131 -7.609147 -7.471784 12.796863 0.056733 -5.218248 3.256456 -10.035745 -15.774467 -7.440430 -61.987441 -5.101988 25.909243 -147.449703 -76.571538 -174.588403 38.731309 -3.203237 -18.478883 4.608631 33.649245 -2.056638 15.115268 25.572380 -23.214341 -4.338512 15.232917 -34.180484 -21.312967 7.281194 -16.886469 
-0.192708 0.361156 0.626514 84.099779 1.144427 82.355171 13.504314 0.835971 -65.316491 -8.619773 22.114371 104.411538 8.495054 6.022061 -36.425088 0.000000 -0.000000 0.000000 -20.607931 -24.530870 -45.525188 -3.579233 -17.028730 121.190859 1.275205 4.825777 -36.501906 0.000000 -0.000000 0.000000 11.448118 3.076485 64.900478 -0.276331 8.392272 6.137649 2.140038 8.750265 6.157134 -7.517775 -7.996298 13.204932 0.143752 -5.161793 3.128022 -9.577406 -15.535688 -7.495325 -62.266247 -4.705513 25.914497 -151.010347 -75.149345 -171.239516 41.053317 -2.591877 -19.150020 4.204847 33.431555 -2.549176 15.411834 25.133768 -22.784011 -4.566586 16.341692 -34.693446 -22.395479 8.029490 -15.878589 
-0.186563 0.358983 0.611113 83.128943 1.148429 81.080414 13.687992 2.395011 -65.234762 -7.986911 22.007062 108.012430 8.191676 4.816527 -37.408954 0.000000 -0.000000 0.000000 -21.092298 -24.353573 -45.471837 -3.387451 -16.124347 123.889304 1.372474 5.285612 -36.455499 0.000000 -0.000000 0.000000 10.736019 4.197893 66.163870 0.326856 8.755777 6.714332 2.517468 9.016236 5.511393 -7.817875 -8.585578 14.701093 0.374724 -4.692880 2.510550 -9.999789 -15.964447 -6.864023 -61.567469 -4.031424 25.166256 -144.041706 -75.820226 -175.044503 48.568602 -7.284323 -17.968303 4.369851 33.856235 -2.449677 15.556480 24.009049 -23.226892 -3.898717 17.890257 -32.195040 -23.887180 8.525073 -16.559433 
-0.185840 0.362716 0.594026 84.004054 1.641233 80.973133 14.160249 1.373509 -67.608104 -8.371340 22.733009 110.685031 8.232449 5.189202 -37.241147 0.000000 -0.000000 0.000000 -22.149383 -25.402331 -46.362419 -3.279152 -16.348391 126.903220 1.151155 5.709386 -36.225757 0.000000 -0.000000 0.000000 11.647940 2.594810 66.207158 0.062419 8.219769 5.184308 2.134063 8.787131 7.183205 -6.922203 -7.976873 13.725402 0.092860 -5.193177 4.079327 -8.937756 -14.831020 -7.558567 -61.913293 -3.625244 24.947152 -150.504903 -73.375378 -171.128143 44.992030 -4.300641 -20.785807 4.038904 32.728591 -3.002937 17.328769 25.151650 -21.939912 -5.450166 19.258343 -33.068915 -23.740544 8.881094 -14.985023 
-0.182764 0.362811 0.581270 83.778839 1.720457 80.347470 14.825844 1.681690 -68.358153 -8.393171 23.135710 113.217321 7.625849 3.958119 -37.245231 0.000000 -0.000000 0.000000 -23.067344 -25.366863 -46.506042 -3.167440 -15.948628 129.252556 1.160996 6.940715 -36.186719 0.000000 -0.000000 0.000000 11.387474 3.061008 66.468034 0.605651 8.027486 5.473508 2.174604 8.724897 7.193407 -6.453242 -7.479725 14.102068 0.010765 -5.745477 4.219249 -8.666159 -14.414183 -7.490590 -61.540122 -3.283533 25.014400 -151.787253 -72.191175 -169.693993 45.984529 -3.651016 -22.070554 4.486127 32.081932 -3.212819 18.857072 25.639967 -20.548660 -6.883469 20.885969 -31.523061 -24.962333 8.847269 -16.196089 
-0.179579 0.362490 0.570782 83.704730 1.905714 79.705511 15.551903 1.975660 -68.918480 -8.434939 23.510021 115.320965 6.994153 2.641736 -37.098548 0.000000 -0.000000 0.000000 -23.796492 -25.576129 -46.416688 -2.685169 -15.713323 131.004946 1.389251 7.814989 -35.927647 0.000000 -0.000000 0.000000 11.413388 3.270278 66.675162 1.003883 7.879809 5.409465 2.300249 8.720019 7.382992 -6.372185 -7.196121 14.541273 -0.013870 -6.035154 4.484657 -8.604285 -14.522388 -7.347426 -61.103522 -3.024866 25.121923 -152.520117 -71.342962 -169.246558 47.869169 -3.560048 -21.777756 5.273383 31.836144 -3.066491 19.519056 25.236371 -19.841347 -7.603943 22.296962 -30.932247 -25.191998 9.491295 -15.861318 
-0.176463 0.361530 0.562253 83.506686 1.896779 79.165322 16.076293 2.396516 -69.343528 -8.262486 23.803524 117.166789 6.345335 1.659322 -36.801189 0.000000 -0.000000 0.000000 -24.633352 -25.629157 -46.111791 -2.421155 -15.441305 132.417699 1.546961 8.698012 -35.945745 0.000000 -0.000000 0.000000 11.210942 3.876377 66.679172 1.536276 7.690803 5.884815 2.468852 8.760971 7.101991 -6.331131 -6.645598 14.937321 -0.120052 -6.359523 4.451332 -8.240861 -14.606661 -7.301374 -61.042902 -2.631711 25.183943 -152.988437 -70.585749 -169.514594 48.271784 -3.169763 -21.749156 5.898199 31.508397 -2.854358 20.761263 24.676078 -18.749406 -9.116717 24.613383 -31.288502 -25.442945 9.210078 -14.933092 
-0.173676 0.361362 0.554824 83.544806 2.041484 78.913652 16.302984 2.524408 -70.091188 -8.030351 23.994309 118.732959 5.999254 1.512881 -36.432818 0.000000 -0.000000 0.000000 -25.112279 -25.806207 -45.979200 -2.260425 -15.225567 133.629940 1.582521 9.291076 -36.096189 0.000000 -0.000000 0.000000 11.296062 3.986633 66.234817 1.871741 7.495918 5.833578 2.521908 8.713073 7.491613 -6.132068 -6.089455 15.202890 -0.237533 -6.705241 4.572220 -8.107532 -14.166576 -7.490032 -61.028834 -2.664094 25.246148 -151.920349 -70.288451 -171.040453 49.192321 -2.852895 -22.056495 6.507479 30.774832 -2.819805 21.496810 24.811278 -17.907278 -9.145625 25.870239 -30.355282 -27.635539 9.257277 -14.763132 
-0.171142 0.361216 0.549131 83.485173 2.047330 78.492800 16.417301 2.411938 -70.231062 -7.821972 24.323226 119.811885 6.155183 1.744400 -36.319295 0.000000 -0.000000 0.000000 -25.430266 -25.691782 -45.836691 -1.950508 -15.006814 134.564421 1.785847 9.391896 -36.080729 0.000000 -0.000000 0.000000 11.183850 4.007107 66.298511 2.030317 7.458969 5.611301 2.481175 8.676383 7.721104 -5.878415 -5.668496 14.967806 -0.446333 -6.914683 5.229661 -7.813343 -13.730508 -7.743990 -61.219519 -2.696926 25.314420 -151.484112 -70.011964 -171.723686 49.510339 -2.763681 -22.167191 6.663351 30.224793 -2.983214 22.778067 24.918301 -16.840406 -9.873810 26.531731 -30.354488 -27.640072 9.414352 -15.117821 
-0.168344 0.360574 0.545110 83.234588 2.064489 78.191728 16.425883 2.394842 -70.218021 -7.281555 24.288119 120.898566 6.347431 2.048080 -36.282014 0.000000 -0.000000 0.000000 -25.670603 -25.436041 -45.752297 -1.896794 -14.758074 135.252902 1.712336 9.656994 -35.987001 0.000000 -0.000000 0.000000 10.924849 4.335957 66.044873 2.290969 7.415041 5.846431 2.578111 8.726879 7.677935 -5.875671 -5.450836 15.332728 -0.537098 -6.835018 5.324861 -8.081298 -13.701760 -7.581299 -61.357022 -2.682863 25.240916 -152.393487 -70.020026 -171.148831 49.629151 -2.794004 -22.113477 7.033346 30.038635 -2.845604 23.463464 24.687095 -16.009434 -10.497073 27.318544 -30.174997 -27.432467 9.425657 -14.864193 
-0.166603 0.360786 0.542029 83.167496 2.207681 77.949726 16.391674 2.119214 -70.402096 -7.046983 24.240812 121.669474 6.369011 2.489946 -36.239442 0.000000 -0.000000 0.000000 -25.539863 -25.119071 -45.806901 -1.767339 -14.599866 135.785889 2.033186 9.590994 -35.624087 0.000000 -0.000000 0.000000 10.944443 4.238470 66.039213 2.392649 7.480219 5.841123 2.485942 8.579537 7.841553 -5.539476 -5.089134 14.599184 -0.922039 -6.973515 6.046146 -7.821187 -13.107365 -7.958075 -61.824236 -2.878605 25.265016 -151.305597 -69.833846 -171.658003 48.646270 -2.531744 -22.127217 7.022880 29.356820 -3.244811 24.300259 25.131141 -15.292449 -10.781597 27.909045 -29.756898 -27.244262 9.234863 -14.927528 
